<svg width="105" height="113" viewBox="0 0 105 113" fill="none" xmlns="http://www.w3.org/2000/svg">
<path d="M12 24C12 17.3726 17.3726 12 24 12H104V92H24C17.3726 92 12 86.6274 12 80V24Z" fill="#252836"/>
<path d="M100.5 8C104.5 4 104 0 104 0V12H92C92 12 96.5 12 100.5 8Z" fill="#252836"/>
<path d="M100.01 95.51C96.01 91.51 92.01 92.01 92.01 92.01H104.01V104.01C104.01 104.01 104.01 99.51 100.01 95.51Z" fill="#252836"/>
<g filter="url(#filter0_d_74_144)">
<rect x="24" y="25" width="56" height="56" rx="8" fill="#F99147"/>
<path d="M53.9511 43.7165L54.1335 43.8865L54.8522 44.6052C55.0991 44.8509 55.4229 45.0024 55.7674 45.0365L55.9161 45.0438H56.9441C58.5479 45.0438 59.8594 46.298 59.951 47.8789L59.9561 48.0558V49.0828C59.9561 49.4326 60.0767 49.7689 60.2943 50.0363L60.3935 50.1465L61.1123 50.8653C62.2438 51.9917 62.2943 53.793 61.2577 54.9801L61.1225 55.1251L60.3941 55.8535C60.1491 56.0991 59.9975 56.4232 59.9635 56.7673L59.9561 56.9158V57.9448C59.9561 59.5485 58.702 60.8591 57.1211 60.9507L56.9441 60.9558H55.9161C55.5676 60.9558 55.2309 61.0769 54.9633 61.2951L54.8531 61.3945L54.1353 62.1113C53.0101 63.2442 51.2075 63.2945 50.0199 62.2574L49.8658 62.1131L49.1487 61.396C48.9003 61.1494 48.5759 60.9973 48.2323 60.9632L48.0841 60.9558H47.0551C45.452 60.9558 44.1408 59.7023 44.0492 58.1217L44.0441 57.9448V56.9158C44.0441 56.5678 43.9228 56.2308 43.7047 55.9638L43.6054 55.8538L42.8883 55.1356C41.7557 54.0095 41.7055 52.2068 42.7425 51.0205L42.8778 50.8755L43.6039 50.1484C43.8509 49.8997 44.0027 49.5758 44.0368 49.2315L44.0441 49.0828V48.0558L44.0492 47.8789C44.1375 46.3567 45.3566 45.1372 46.8783 45.0489L47.0551 45.0438H48.0841C48.4326 45.0438 48.7694 44.9229 49.0364 44.7058L49.1464 44.6069L49.8646 43.8877C50.991 42.7562 52.7934 42.7064 53.9511 43.7165ZM51.0415 44.8426L50.9268 44.9468L50.2056 45.669C49.6883 46.1826 49.0042 46.4897 48.282 46.5373L48.0841 46.5438H47.0551C46.2676 46.5438 45.6198 47.148 45.5503 47.9182L45.5441 48.0558V49.0828C45.5441 49.812 45.2795 50.5131 44.8022 51.0612L44.6668 51.2068L43.9397 51.9349C43.3878 52.4893 43.3557 53.3649 43.8434 53.959L43.9478 54.0739L44.6671 54.7941C45.1815 55.3097 45.4898 55.9951 45.5376 56.7179L45.5441 56.9158V57.9448C45.5441 58.7328 46.1478 59.3801 46.9176 59.4496L47.0551 59.4558H48.0841C48.8119 59.4558 49.5137 59.7207 50.0619 60.1981L50.2075 60.3335L50.9308 61.0568C51.489 61.6119 52.3649 61.6442 52.9584 61.1566L53.0732 61.0521L53.7941 60.3322C54.3108 59.818 54.9952 59.5101 55.7181 59.4623L55.9161 59.4558H56.9441C57.7328 59.4558 58.3804 58.8524 58.4499 58.0823L58.4561 57.9448V56.9158C58.4561 56.187 58.7209 55.484 59.1976 54.9383L59.3328 54.7935L60.0603 54.066C60.6121 53.511 60.6441 52.6358 60.1571 52.042L60.0528 51.9271L59.3309 51.2053C58.817 50.6877 58.5102 50.0043 58.4626 49.281L58.4561 49.0828V48.0558C58.4561 47.2674 57.8521 46.6195 57.0817 46.55L56.9441 46.5438H55.9161C55.187 46.5438 54.4849 46.2794 53.938 45.8025L53.7928 45.6671L53.1049 44.9774L53.065 44.9403C52.5107 44.3886 51.6349 44.3563 51.0415 44.8426ZM55.0965 55.0424C55.1665 55.1124 55.2265 55.1924 55.2665 55.2824C55.2965 55.3724 55.3165 55.4724 55.3165 55.5724C55.3165 55.6734 55.2965 55.7624 55.2665 55.8524C55.2265 55.9424 55.1665 56.0324 55.0965 56.1024C54.9565 56.2424 54.7665 56.3224 54.5665 56.3224C54.3665 56.3224 54.1765 56.2424 54.0365 56.1024C53.9665 56.0324 53.9165 55.9424 53.8765 55.8524C53.8365 55.7624 53.8165 55.6734 53.8165 55.5724C53.8165 55.4724 53.8365 55.3724 53.8765 55.2824C53.9165 55.1924 53.9665 55.1124 54.0365 55.0424C54.3165 54.7624 54.8165 54.7624 55.0965 55.0424ZM55.1002 49.8992C55.3664 50.1654 55.3906 50.5821 55.1728 50.8757L55.1002 50.9598L49.9602 56.0998C49.6673 56.3927 49.1924 56.3927 48.8995 56.0998C48.6332 55.8336 48.609 55.4169 48.8269 55.1233L48.8995 55.0392L54.0395 49.8992C54.3324 49.6063 54.8073 49.6063 55.1002 49.8992ZM49.9564 49.9028C50.0964 50.0418 50.1764 50.2328 50.1764 50.4328C50.1764 50.5328 50.1664 50.6218 50.1264 50.7128C50.0864 50.8028 50.0264 50.8828 49.9564 50.9628C49.8864 51.0328 49.8064 51.0818 49.7164 51.1218C49.6264 51.1618 49.5264 51.1828 49.4264 51.1828C49.3264 51.1828 49.2364 51.1618 49.1464 51.1218C49.0564 51.0818 48.9664 51.0328 48.8964 50.9628C48.8264 50.8828 48.7764 50.8028 48.7364 50.7128C48.6964 50.6218 48.6764 50.5328 48.6764 50.4328C48.6764 50.3318 48.6964 50.2328 48.7364 50.1428C48.7764 50.0528 48.8264 49.9628 48.8964 49.9028C49.1864 49.6218 49.6764 49.6218 49.9564 49.9028Z" fill="white"/>
</g>
<defs>
<filter id="filter0_d_74_144" x="0" y="9" width="104" height="104" filterUnits="userSpaceOnUse" color-interpolation-filters="sRGB">
<feFlood flood-opacity="0" result="BackgroundImageFix"/>
<feColorMatrix in="SourceAlpha" type="matrix" values="0 0 0 0 0 0 0 0 0 0 0 0 0 0 0 0 0 0 127 0" result="hardAlpha"/>
<feOffset dy="8"/>
<feGaussianBlur stdDeviation="12"/>
<feColorMatrix type="matrix" values="0 0 0 0 0.917647 0 0 0 0 0.486275 0 0 0 0 0.411765 0 0 0 0.32 0"/>
<feBlend mode="normal" in2="BackgroundImageFix" result="effect1_dropShadow_74_144"/>
<feBlend mode="normal" in="SourceGraphic" in2="effect1_dropShadow_74_144" result="shape"/>
</filter>
</defs>
</svg>
